<?xml version="1.0" encoding="UTF-8"?>
<svg id="_レイヤー_1" xmlns="http://www.w3.org/2000/svg" version="1.1" viewBox="0 0 564.6 670.5">
  <!-- Generator: Adobe Illustrator 29.8.3, SVG Export Plug-In . SVG Version: 2.1.1 Build 3)  -->
  <polygon points="564.6 289.2 477 206.3 477 261.2 308 261.2 308 317.3 477 317.3 477 372.2 564.6 289.2"/>
  <path d="M430.5,380.3h-38.4v26.3c0,42.4,1.9,53.4,0,95.8-1,21.2-16.2,37-37.7,37.8h-98.7V202.7c0-31.4-14.2-65.4-31.7-76L77.8,38.1c9.7-.8,20,0,29.3,0h200.9c17,0,35.7-2.2,52.6.5,27.4,4.4,31.4,28.9,31.4,51.4v108.2h38.4v-14.5c0-46.5,1.5-61.4,0-107.9C428.9,31.2,394.4,0,350.6-.3c-25.5-.3-51,0-76.4,0C209.5-.3,144.9-.9,80.2-.3,36.4,0,1.8,31.2.5,75.8c-.4,13.9,0,28,0,41.9,0,127.1-1.2,254.2,0,381.3.4,42.6,30.3,77.4,73.8,79.6,1.2,0,2.4,0,3.6,0l146.2,88.6c17.5,10.6,31.7-6.2,31.7-37.6v-51h98.7c.9,0,1.7,0,2.6-.2,43.1-2.9,73.1-36.5,73.5-79.6.2-19.6,0-39.3,0-58.9v-59.8h0ZM177.8,323.2c0-24.7,34.2-24.7,34.2,0v42.9c0,24.7-34.2,24.7-34.2,0v-42.9Z"/>
</svg>