<svg xmlns="http://www.w3.org/2000/svg" width="189.844" height="24" viewBox="0 0 189.844 24">
  <metadata><?xpacket begin="﻿" id="W5M0MpCehiHzreSzNTczkc9d"?>
<x:xmpmeta xmlns:x="adobe:ns:meta/" x:xmptk="Adobe XMP Core 5.6-c140 79.160451, 2017/05/06-01:08:21        ">
   <rdf:RDF xmlns:rdf="http://www.w3.org/1999/02/22-rdf-syntax-ns#">
      <rdf:Description rdf:about=""/>
   </rdf:RDF>
</x:xmpmeta>
                                                                                                    
                                                                                                    
                                                                                                    
                                                                                                    
                                                                                                    
                                                                                                    
                                                                                                    
                                                                                                    
                                                                                                    
                                                                                                    
                                                                                                    
                                                                                                    
                                                                                                    
                                                                                                    
                                                                                                    
                                                                                                    
                                                                                                    
                                                                                                    
                                                                                                    
                                                                                                    
                           
<?xpacket end="w"?></metadata>
<defs>
    <style>
      .cls-1 {
        fill: #2e3740;
        fill-rule: evenodd;
      }
    </style>
  </defs>
  <path id="PRO_WORKS" data-name="PRO WORKS" class="cls-1" d="M206.047,78.733h-7.6a1.994,1.994,0,0,0-2.034,2.033v19.267a2.066,2.066,0,0,0,.534,1.45,1.767,1.767,0,0,0,1.366.583,1.832,1.832,0,0,0,1.4-.567,2.049,2.049,0,0,0,.534-1.466v-6.3h5.8a5.754,5.754,0,0,0,3.233-1.017,7.5,7.5,0,0,0,2.467-2.75,7.969,7.969,0,0,0,0-7.483,7.539,7.539,0,0,0-2.467-2.733,5.758,5.758,0,0,0-3.233-1.017h0Zm0,11.2h-5.8V82.566h5.8a1.946,1.946,0,0,1,1.25.517,3.775,3.775,0,0,1,1,1.367,4.343,4.343,0,0,1,0,3.567,3.934,3.934,0,0,1-1,1.383,1.912,1.912,0,0,1-1.25.533h0Zm28.1,8.867a1.093,1.093,0,0,1-.6-0.683,10.6,10.6,0,0,1-.267-1.483,5.578,5.578,0,0,0-.1-1.033,5.107,5.107,0,0,0-2.3-3.933,7.171,7.171,0,0,0,2.333-2.517,6.5,6.5,0,0,0,.9-3.25,7.363,7.363,0,0,0-.916-3.667,6.9,6.9,0,0,0-2.45-2.567,6.186,6.186,0,0,0-3.267-.933h-9.6a1.992,1.992,0,0,0-2.033,2.033v19.267a1.8,1.8,0,0,0,.716,1.45,2.586,2.586,0,0,0,1.684.583,1.6,1.6,0,0,0,1.283-.567,2.179,2.179,0,0,0,.483-1.466V93.566h6.234a3.271,3.271,0,0,1,2.25.7,2.42,2.42,0,0,1,.783,1.9q0,4.2,2.4,5.567a3,3,0,0,0,1.467.366,1.883,1.883,0,0,0,1.533-.6,1.719,1.719,0,0,0,.4-1.1,1.774,1.774,0,0,0-.25-0.9,1.978,1.978,0,0,0-.683-0.7h0Zm-6.834-8.667h-7.3V82.566h7.3a1.824,1.824,0,0,1,1.167.467,3.514,3.514,0,0,1,.933,1.25A3.992,3.992,0,0,1,229.78,86a5.633,5.633,0,0,1-.367,2.05,4.29,4.29,0,0,1-.933,1.517,1.659,1.659,0,0,1-1.167.567h0ZM259.547,90.4a12.651,12.651,0,0,0-1.467-6.05A11.236,11.236,0,0,0,254.03,80,11.372,11.372,0,0,0,242.4,80a11.109,11.109,0,0,0-4.034,4.35,13.347,13.347,0,0,0,0,12.1,11.1,11.1,0,0,0,4.034,4.35,11.372,11.372,0,0,0,11.633,0,11.232,11.232,0,0,0,4.05-4.35,12.65,12.65,0,0,0,1.467-6.05h0Zm-4.334,0a9,9,0,0,1-.9,4.05,7.258,7.258,0,0,1-2.5,2.883,6.679,6.679,0,0,1-7.216.017,7.032,7.032,0,0,1-2.467-2.883,9.806,9.806,0,0,1,0-8.133,7.036,7.036,0,0,1,2.467-2.883,6.679,6.679,0,0,1,7.216.017,7.265,7.265,0,0,1,2.5,2.883,9,9,0,0,1,.9,4.05h0Zm42.4-11.767a2.22,2.22,0,0,0-1.217.35,1.755,1.755,0,0,0-.75.95L290.713,94.9l-4.1-10.3a2.3,2.3,0,0,0-.75-0.95,1.7,1.7,0,0,0-1.117-.317,1.761,1.761,0,0,0-1.133.317,2.24,2.24,0,0,0-.767.95L278.513,95l-4.967-15.067a1.781,1.781,0,0,0-.733-0.95,2.141,2.141,0,0,0-1.2-.35,2.212,2.212,0,0,0-1.517.617,2,2,0,0,0-.683,1.55,2.54,2.54,0,0,0,.1.667l6.566,19.333a1.761,1.761,0,0,0,.7.9,2.158,2.158,0,0,0,1.1.367,2.108,2.108,0,0,0,1.134-.333,2.234,2.234,0,0,0,.833-0.967L284.613,90l4.733,10.767a2.234,2.234,0,0,0,.833.967,2.108,2.108,0,0,0,1.134.333,2.158,2.158,0,0,0,1.1-.367,1.761,1.761,0,0,0,.7-0.9l6.566-19.333a2.54,2.54,0,0,0,.1-0.667,2,2,0,0,0-.683-1.55,2.176,2.176,0,0,0-1.483-.617h0Zm26,11.767a12.662,12.662,0,0,0-1.467-6.05A11.236,11.236,0,0,0,318.1,80a11.372,11.372,0,0,0-11.633,0,11.109,11.109,0,0,0-4.034,4.35,13.347,13.347,0,0,0,0,12.1,11.1,11.1,0,0,0,4.034,4.35,11.372,11.372,0,0,0,11.633,0,11.232,11.232,0,0,0,4.05-4.35,12.662,12.662,0,0,0,1.467-6.05h0Zm-4.334,0a9,9,0,0,1-.9,4.05,7.258,7.258,0,0,1-2.5,2.883,6.679,6.679,0,0,1-7.216.017,7.032,7.032,0,0,1-2.467-2.883,9.806,9.806,0,0,1,0-8.133,7.036,7.036,0,0,1,2.467-2.883,6.679,6.679,0,0,1,7.216.017,7.265,7.265,0,0,1,2.5,2.883,9,9,0,0,1,.9,4.05h0Zm25.8,8.4a1.093,1.093,0,0,1-.6-0.683,10.6,10.6,0,0,1-.267-1.483,5.578,5.578,0,0,0-.1-1.033,5.107,5.107,0,0,0-2.3-3.933,7.171,7.171,0,0,0,2.333-2.517,6.5,6.5,0,0,0,.9-3.25,7.363,7.363,0,0,0-.916-3.667,6.9,6.9,0,0,0-2.45-2.567,6.186,6.186,0,0,0-3.267-.933h-9.6a1.992,1.992,0,0,0-2.033,2.033v19.267a1.8,1.8,0,0,0,.716,1.45,2.586,2.586,0,0,0,1.684.583,1.6,1.6,0,0,0,1.283-.567,2.179,2.179,0,0,0,.483-1.466V93.566h6.234a3.271,3.271,0,0,1,2.25.7,2.42,2.42,0,0,1,.783,1.9q0,4.2,2.4,5.567a3,3,0,0,0,1.467.366,1.883,1.883,0,0,0,1.533-.6,1.719,1.719,0,0,0,.4-1.1,1.774,1.774,0,0,0-.25-0.9,1.978,1.978,0,0,0-.683-0.7h0Zm-6.834-8.667h-7.3V82.566h7.3a1.824,1.824,0,0,1,1.167.467,3.514,3.514,0,0,1,.933,1.25A3.992,3.992,0,0,1,340.712,86a5.633,5.633,0,0,1-.367,2.05,4.29,4.29,0,0,1-.933,1.517,1.659,1.659,0,0,1-1.167.567h0ZM366.879,98.6l-7.434-9.833,7.267-6.933a1.816,1.816,0,0,0,.6-1.3,2.047,2.047,0,0,0-.533-1.333,1.642,1.642,0,0,0-1.3-.633,2.3,2.3,0,0,0-1.634.767l-10.666,10.5V80.766a1.943,1.943,0,0,0-2.034-2.033,2.11,2.11,0,0,0-1.533.583,1.941,1.941,0,0,0-.6,1.45v19.267a1.968,1.968,0,0,0,.583,1.45,2.011,2.011,0,0,0,1.484.583,2.083,2.083,0,0,0,1.516-.567,1.952,1.952,0,0,0,.584-1.466V94.8l3.166-3.033,7.234,9.533a1.81,1.81,0,0,0,.666.567,1.849,1.849,0,0,0,.834.2,2.327,2.327,0,0,0,1.583-.6,1.915,1.915,0,0,0,.683-1.5,2.188,2.188,0,0,0-.133-0.717,2.4,2.4,0,0,0-.333-0.65h0Zm10.8,3.8a10.551,10.551,0,0,0,4.233-.85,7.6,7.6,0,0,0,3.15-2.433,5.989,5.989,0,0,0,1.183-3.683,6.562,6.562,0,0,0-.866-3.583,5.856,5.856,0,0,0-2.584-2.133,19.3,19.3,0,0,0-4.583-1.283,11.222,11.222,0,0,1-3.717-1.2,2.488,2.488,0,0,1-.033-4.217,5.738,5.738,0,0,1,3.25-.783,8.017,8.017,0,0,1,2.783.583,8.808,8.808,0,0,1,2.417,1.283,1.464,1.464,0,0,0,.9.3,1.8,1.8,0,0,0,1.333-.583,1.878,1.878,0,0,0,.567-1.35,2.224,2.224,0,0,0-.967-1.767,9.588,9.588,0,0,0-3.083-1.667,12.12,12.12,0,0,0-3.95-.633,10.611,10.611,0,0,0-4.233.817,6.944,6.944,0,0,0-3,2.367,6.138,6.138,0,0,0-1.1,3.65q0,5.734,7.3,6.8a11.3,11.3,0,0,1,4.233,1.283,2.652,2.652,0,0,1,1.333,2.35,2.414,2.414,0,0,1-1.35,2.067,6,6,0,0,1-3.216.833,8.153,8.153,0,0,1-3-.5,9.79,9.79,0,0,1-2.6-1.6,1.769,1.769,0,0,0-1.134-.4,1.835,1.835,0,0,0-1.366.583,1.876,1.876,0,0,0-.567,1.35,2.34,2.34,0,0,0,.9,1.767,9.856,9.856,0,0,0,3.5,2.033,13.934,13.934,0,0,0,4.267.6h0Z" transform="translate(-196.406 -78.406)"/>
</svg>
